<?xml version="1.0" encoding="UTF-8"?>
<svg id="Layer_1" data-name="Layer 1" xmlns="http://www.w3.org/2000/svg" version="1.1" xmlns:xlink="http://www.w3.org/1999/xlink" viewBox="0 0 1548.7 412">
  <defs>
    <style>
      .cls-1 {
        fill: url(#linear-gradient);
      }

      .cls-1, .cls-2, .cls-3, .cls-4 {
        stroke-width: 0px;
      }

      .cls-2 {
        fill: #000;
      }

      .cls-3 {
        fill: #ff5e5b;
      }

      .cls-4 {
        fill: #fff;
      }
    </style>
    <linearGradient id="linear-gradient" x1="159.1" y1="1311.3" x2="240" y2="1062.9" gradientTransform="translate(4.2 1269.8) scale(1 -1)" gradientUnits="userSpaceOnUse">
      <stop offset="0" stop-color="#ff4ea3"/>
      <stop offset="1" stop-color="#ff5e5b"/>
    </linearGradient>
  </defs>
  <g id="Layer_1-2" data-name="Layer 1-2">
    <g id="Layer_1-3" data-name="Layer 1-3">
      <g>
        <path class="cls-4" d="M487.7,228.4c-22.6,2.5-41.3,1.2-41.3,1.2V88.4h28.8c18.8,0,36.3,7.5,48.7,22.6,8.7,10,15,23.8,15,43.8,0,46.2-23.8,65-51.2,73.7h0,0ZM609.1,129.7c-8.7-43.8-31.3-71.3-56.2-87.5-25-17.5-55-26.3-85-26.3H37.4c-15,0-21.3,15-21.3,22.5v5s-1.2,190.1,1.2,292.7c3.7,60.1,63.8,60.1,63.8,60.1,0,0,196.3,0,291.4-1.2,5,0,8.7,0,13.7-1.2,53.8-13.7,58.8-63.8,58.8-91.3,107.7,4.8,184-71.5,164.1-172.8h0Z"/>
        <g>
          <path class="cls-2" d="M624.6,126.7h0s0-.1,0-.1h0c-10.7-53.7-40.1-82.7-62.9-97.6C535,10.3,501.6,0,467.8,0H37.4C13.2,0,.3,22.3.3,38.4v4.9c0,1.9-1.2,191.5,1.2,293.2,0,.2,0,.4,0,.6,2.4,38.7,24.3,57.1,42.2,65.8,18.5,9,36.6,9.1,37.4,9.1h0c8.1,0,198.2,0,291.4-1.2,5.4,0,10.5,0,17.3-1.6h.2c28.4-7.3,48.6-23.9,60.1-49.4,5.4-12,8.7-25.6,10-41.4,26-.7,50.5-5.8,72.8-15.3,23.5-10,43.4-24.4,59.1-42.6,30.9-35.9,42.4-83.4,32.5-133.8h0ZM33.2,335.4c-2.3-99.9-1.2-284.2-1.2-292v-4.9c0-.5,1.2-6.8,5.4-6.8h430.4c27.5,0,54.5,8.3,75.9,23.4.2.1.3.2.5.3,25.9,16.8,42.5,42.9,49.3,77.3,8,40.7-1,78.7-25.5,107.1-27.5,32-72.1,49-122.4,46.8-4.3-.2-8.5,1.4-11.7,4.4-3.1,3-4.9,7.1-4.9,11.5,0,43-15.3,67.9-46.7,76-3.1.7-5.4.8-9.9.8h-.3c-82.7,1-242.5,1.2-289.5,1.2h-1.7c-.1,0-11.9-.2-23.6-5.9-14.9-7.2-23.1-20.4-24.4-39h0Z"/>
          <path class="cls-2" d="M445.3,245.5c.6,0,5.7.4,13.7.4s20.6-.6,30.4-1.6c1-.1,2.1-.3,3-.6,41.3-13.1,62.3-43,62.3-88.8s-6.3-39.7-18.8-54c-15.1-18.2-36.7-28.2-60.8-28.2h-28.8c-8.7,0-15.8,7.1-15.8,15.8v141.3c0,8.3,6.5,15.2,14.7,15.8h0ZM462.3,214.1v-109.9h13c14.6,0,27.6,6,36.5,16.8l.2.3c7.5,8.6,11.2,19.5,11.2,33.4,0,31.6-11.6,49-38.7,58.1-7.1.7-14.5,1.1-22.1,1.2h0Z"/>
        </g>
      </g>
      <path class="cls-3" d="M227.5,316c5,2.5,7.5,0,7.5,0,0,0,68.8-62.6,100.1-98.8,27.5-32.5,28.8-86.3-17.5-106.3-47.5-20.1-86.3,23.8-86.3,23.8-33.8-37.5-85-35-108.8-10s-15,67.6,2.5,92.6c16.2,22.6,88.8,87.6,100.1,97.6,0-1.3,1.3,0,2.5,1.2h0Z"/>
      <path class="cls-1" d="M229.8,317.8c2.8.6,5.2-1.9,5.2-1.9,0,0,68.8-62.6,100.1-98.8,27.5-32.5,28.8-86.3-17.5-106.3-47.5-20.1-86.3,23.8-86.3,23.8-33.8-37.5-85-35-108.8-10s-15,67.6,2.5,92.6c15.3,21.3,92.1,90.3,101.7,99,.9.8,2,1.5,3.2,1.7h0Z"/>
    </g>
  </g>
  <g>
    <path class="cls-4" d="M912.6,310c1,3,1.6,5.8,1.6,8.4,0,7.1-2.7,13-8,17.7-5.4,4.7-11.6,7.1-18.6,7.1s-6.7-.8-9.8-2.4-5.8-3.8-7.8-6.7l-85.2-112.2-37.3,35.7v61.6c0,7.1-2.3,12.8-6.9,17.3-4.6,4.5-10.5,6.7-17.9,6.7s-12.9-2.3-17.5-6.9c-4.6-4.6-6.9-10.3-6.9-17.1V92.3c0-6.8,2.4-12.5,7.1-17.1,4.7-4.6,10.7-6.9,18-6.9s12.8,2.2,17.3,6.7c4.5,4.4,6.7,10.2,6.7,17.3v106.7l125.6-123.6c6-6,12.4-9,19.2-9s11.1,2.5,15.3,7.5c4.2,5,6.3,10.2,6.3,15.7s-2.3,10.6-7.1,15.3l-85.5,81.6,87.5,115.8c1.6,2.1,2.9,4.6,3.9,7.6h0Z"/>
    <path class="cls-4" d="M1130.8,294.6c-9.4,16.6-22.3,29.5-38.7,38.7s-34.3,13.7-54,13.7-37.9-4.6-54.2-13.7c-16.2-9.2-29-22-38.5-38.7-9.4-16.6-14.1-35.4-14.1-56.3s4.7-39.7,14.1-56.3c9.4-16.6,22.2-29.6,38.5-38.9,16.2-9.3,34.3-13.9,54.2-13.9s37.6,4.6,54,13.9c16.3,9.3,29.2,22.2,38.7,38.9,9.4,16.6,14.1,35.4,14.1,56.3s-4.7,39.7-14.1,56.3ZM1089.8,204c-5.4-10.1-12.6-17.9-21.6-23.4-9-5.5-19-8.2-30-8.2s-21,2.8-30,8.2-16.2,13.3-21.6,23.4c-5.4,10.1-8,21.5-8,34.3s2.7,24.2,8,34.1c5.4,10,12.6,17.7,21.6,23.1s19,8.2,30,8.2,21-2.8,30-8.2c9-5.5,16.2-13.2,21.6-23.1s8-21.3,8-34.1-2.7-24.3-8-34.3Z"/>
    <path class="cls-4" d="M1185.1,239.5c-4.6-4.4-6.9-10.1-6.9-16.9s2.3-12,6.9-16.5c4.6-4.4,10.3-6.7,17.1-6.7h68.3c6.8,0,12.5,2.3,17.1,6.9,4.6,4.6,6.9,10.3,6.9,17.1s-2.3,12-6.9,16.3-10.3,6.5-17.1,6.5h-68.3c-6.8,0-12.5-2.2-17.1-6.7h0Z"/>
    <path class="cls-4" d="M1421.6,101.9c-3.7,5.1-5.5,10.7-5.5,16.7v18.4h35.7c6.3,0,11.5,2,15.7,6.1,4.2,4.1,6.3,9.2,6.3,15.5s-2.1,11.4-6.3,15.5c-4.2,4.1-9.4,6.1-15.7,6.1h-35.7v138.9c0,6.8-2.2,12.5-6.7,17.1-4.4,4.6-10.1,6.9-16.9,6.9s-12.4-2.3-16.9-6.9c-4.4-4.6-6.7-10.3-6.7-17.1v-138.9h-21.2c-6.3,0-11.5-2-15.7-6.1-4.2-4.1-6.3-9.2-6.3-15.5s2.1-11.4,6.3-15.5c4.2-4.1,9.4-6.1,15.7-6.1h21.2v-18.1c0-19.6,6.7-35.6,20.2-47.9,13.5-12.3,32.9-18.4,58.3-18.4s18.1,2,25.3,5.9c7.2,3.9,10.8,9.9,10.8,18.1s-1.8,11.4-5.5,15.3c-3.7,3.9-8.1,5.9-13.3,5.9s-2.7-.1-4.1-.4c-1.4-.3-2.9-.5-4.5-.8-6.3-1.6-11.5-2.3-15.7-2.3-8.9,0-15.2,2.6-18.8,7.7h0s0,0,0,0ZM1504.8,103.3c-3.7-2.9-5.5-8-5.5-15.3v-7.5c0-7.3,2-12.4,5.9-15.3,3.9-2.9,10.2-4.3,18.8-4.3s15.6,1.4,19.2,4.3c3.7,2.9,5.5,8,5.5,15.3v7.5c0,7.6-1.9,12.8-5.7,15.5-3.8,2.8-10.3,4.1-19.4,4.1s-15.2-1.4-18.8-4.3h0ZM1540.9,336.2c-4.4,4.6-10.1,6.9-16.9,6.9s-12.4-2.3-16.9-6.9c-4.4-4.6-6.7-10.3-6.7-17.1v-162.1c0-6.8,2.2-12.5,6.7-17.1,4.4-4.6,10.1-6.9,16.9-6.9s12.4,2.3,16.9,6.9c4.4,4.6,6.7,10.3,6.7,17.1v162.1c0,6.8-2.2,12.5-6.7,17.1Z"/>
  </g>
</svg>