<?xml version="1.0" encoding="UTF-8"?>
<svg id="Layer_1" data-name="Layer 1" xmlns="http://www.w3.org/2000/svg" version="1.1" viewBox="0 0 1633.4 328.6">
  <defs>
    <style>
      .cls-1 {
        fill: #fff;
        stroke-width: 0px;
      }
    </style>
  </defs>
  <path class="cls-1" d="M433.4,83.1c0-8.4,6.3-14.2,16.1-14.2h46.8c42.5,0,71.3,23.4,71.3,57.7s-28.6,58.8-71.3,58.8h-6.5c-16.3,0-24.8,8.4-24.8,22.1v38.4c0,10.9-6.3,17.7-15.8,17.7s-15.8-6.8-15.8-17.7V83.1ZM465,131.9c0,17.1,8.7,25.3,25.3,25.3h4.1c23.4,0,40.6-9.5,40.6-30.5s-17.2-30.5-40.6-30.5h-4.1c-16.6,0-25.3,8.2-25.3,25.3v10.3h0ZM567.7,248.7c0,9,6.3,15,15.8,15s12-4.1,15.2-12.5l5.7-15.2c4.6-12.2,12.8-18,21.8-18h51.7c9,0,17.2,5.7,21.8,18l5.7,15.2c3.3,8.4,9,12.5,15.2,12.5,9.5,0,15.8-6,15.8-15s-.5-5.4-1.6-8.4l-61.8-160.6c-3.8-9.8-12.5-14.7-21-14.7s-17.2,4.9-21,14.7l-61.8,160.6c-1.1,3-1.6,6-1.6,8.4h0ZM627.8,175.7c0-3,.8-5.7,2.2-9.8l11.7-32.4c2.2-6.3,6-9.3,10.3-9.3s8.2,3,10.3,9.3l11.7,32.4c1.4,4.1,2.2,6.8,2.2,9.8,0,8.2-4.6,13.9-16.9,13.9h-14.7c-12.2,0-16.9-5.7-16.9-13.9h0ZM726.1,83.7c0-8.7,6.3-14.7,16.3-14.7h125.3c10.1,0,16.3,6,16.3,14.7s-6.3,14.7-16.3,14.7h-21c-16.6,0-25.6,8.4-25.6,27.8v119.5c0,11.2-6.3,18-16.1,18s-16.1-6.8-16.1-18v-119.5c0-19.3-9-27.8-25.6-27.8h-21c-10.1,0-16.3-6-16.3-14.7h0ZM913.5,246c0,10.9,6.3,17.7,15.8,17.7s15.8-6.8,15.8-17.7v-43.3c0-12.2,7.1-17.4,15.8-17.4h2.2c5.7,0,11.4,3.5,15,8.7l41.4,60.7c3.8,5.7,8.7,9,15,9s14.7-6.8,14.7-15-1.1-6.8-3.5-10.4l-27.5-38.7c-3.3-4.6-4.6-8.4-4.6-11.7,0-6.8,6-11.7,13.1-16.9,12.8-9.5,26.7-22.1,26.7-46s-26.1-56.1-69.2-56.1h-54.7c-9.8,0-15.8,5.7-15.8,14.2v162.8h0ZM945.1,129.4v-8.2c0-17.7,9.3-25.1,23.4-25.1h13.6c23.4,0,38.4,8.7,38.4,28.9s-15.8,29.4-39.2,29.4h-12.8c-14.2,0-23.4-7.4-23.4-25.1h0ZM1093.5,245.4V83.1c0-8.4,6-14.2,15.8-14.2h102.9c9.8,0,15.8,5.7,15.8,14.2s-6,14.2-15.8,14.2h-65.1c-12.8,0-22.1,7.6-22.1,22.1v6c0,14.4,9.3,22.1,22.1,22.1h50.4c9.8,0,15.8,5.7,15.8,14.2s-6,14.2-15.8,14.2h-48.5c-12.8,0-24,7.9-24,24v7.6c0,16.1,11.2,24,24,24h63.2c9.8,0,15.8,5.7,15.8,14.2s-6,14.2-15.8,14.2h-102.9c-9.8,0-15.8-5.7-15.8-14.2h0ZM1246.8,164.3c0-58.8,44.1-99.4,95.8-99.4s95.8,40.6,95.8,99.4-44.1,99.4-95.8,99.4-95.8-40.6-95.8-99.4h0ZM1282.7,164.3c0,41.4,24.5,67.8,59.9,67.8s59.9-26.4,59.9-67.8-24.5-67.8-59.9-67.8-59.9,26.1-59.9,67.8ZM1476.3,246c0,10.9,6.3,17.7,15.8,17.7s15.8-6.8,15.8-17.7v-83.3c0-10.1,6-15,12.2-15s9,2.7,12,7.6l52.3,87.4c7.1,12,13.6,21,27,21s22.1-9.3,22.1-24.2V82.6c0-10.9-6.3-17.7-15.8-17.7s-15.8,6.8-15.8,17.7v83.3c0,10.1-6,15-12.2,15s-9-2.7-12-7.6l-52.3-87.4c-7.1-12-13.6-21-27-21s-22.1,9.3-22.1,24.2v156.8h0Z"/>
  <path class="cls-1" d="M300,98.7c0-42-32.7-76.3-71.1-88.7C181.3-5.4,118.5-3.2,73.1,18.2,18,44.2.7,101.2,0,158c-.5,46.7,4.1,169.7,73.5,170.6,51.5.6,59.2-65.8,83.1-97.8,17-22.8,38.8-29.2,65.7-35.9,46.2-11.4,77.7-47.9,77.7-96.2h0Z"/>
</svg>